<svg xmlns="http://www.w3.org/2000/svg" xmlns:xlink="http://www.w3.org/1999/xlink" width="1366" height="768" viewBox="0 0 1366 768"><rect width="100%" height="100%" fill="#EEE"/><path d="M321.86 428.39L343.31 428.39L343.31 443.65L277.31 443.65L277.31 428.39L301.48 428.39L301.48 358.84Q301.48 354.71 301.73 350.34L301.73 350.34L284.57 364.70Q283.08 365.85 281.64 366.14Q280.19 366.43 278.91 366.18Q277.64 365.93 276.65 365.31Q275.66 364.70 275.16 363.95L275.16 363.95L268.73 355.13L305.11 324.19L321.86 324.19L321.86 428.39ZM373.25 359.50L362.53 357.60Q363.77 349.02 367.31 342.54Q370.86 336.07 376.18 331.74Q381.50 327.41 388.39 325.22Q395.28 323.03 403.20 323.03L403.20 323.03Q411.45 323.03 418.09 325.38Q424.73 327.74 429.44 331.90Q434.14 336.07 436.65 341.68Q439.17 347.29 439.17 353.81L439.17 353.81Q439.17 359.50 437.89 363.83Q436.61 368.16 434.22 371.38Q431.83 374.60 428.28 376.82Q424.73 379.05 420.28 380.54L420.28 380.54Q431.00 383.92 436.28 390.85Q441.56 397.78 441.56 408.26L441.56 408.26Q441.56 417.17 438.26 424.01Q434.96 430.86 429.35 435.52Q423.74 440.18 416.36 442.58Q408.98 444.97 400.73 444.97L400.73 444.97Q391.73 444.97 385.05 442.91Q378.37 440.84 373.42 436.80Q368.47 432.76 365.00 426.90Q361.54 421.04 359.06 413.37L359.06 413.37L368.06 409.66Q371.60 408.17 374.70 408.87Q377.79 409.58 379.19 412.22L379.19 412.22Q380.68 415.10 382.45 417.91Q384.23 420.71 386.70 422.90Q389.18 425.09 392.52 426.45Q395.86 427.81 400.48 427.81L400.48 427.81Q405.68 427.81 409.55 426.12Q413.43 424.43 416.03 421.70Q418.63 418.98 419.91 415.64Q421.19 412.30 421.19 408.92L421.19 408.92Q421.19 404.63 420.28 401.12Q419.37 397.61 416.48 395.14Q413.60 392.66 408.19 391.26Q402.79 389.86 393.71 389.86L393.71 389.86L393.71 375.34Q401.22 375.26 406.17 373.94Q411.12 372.62 414.05 370.26Q416.98 367.91 418.13 364.61Q419.29 361.31 419.29 357.35L419.29 357.35Q419.29 348.94 414.59 344.57Q409.88 340.19 402.05 340.19L402.05 340.19Q398.42 340.19 395.36 341.22Q392.31 342.26 389.88 344.11Q387.44 345.97 385.79 348.44Q384.14 350.92 383.32 353.89L383.32 353.89Q381.92 357.68 379.65 358.92Q377.38 360.16 373.25 359.50L373.25 359.50ZM527.78 324.35L492.38 367.67L488.26 372.78Q491.72 371.05 495.72 370.10Q499.73 369.15 504.35 369.15L504.35 369.15Q511.11 369.15 517.50 371.38Q523.90 373.61 528.77 378.10Q533.63 382.60 536.60 389.28Q539.57 395.96 539.57 404.87L539.57 404.87Q539.57 413.21 536.52 420.51Q533.47 427.81 527.94 433.25Q522.41 438.70 514.62 441.83Q506.82 444.97 497.42 444.97L497.42 444.97Q487.85 444.97 480.26 441.92Q472.67 438.86 467.30 433.38Q461.94 427.89 459.09 420.18Q456.25 412.46 456.25 403.06L456.25 403.06Q456.25 394.64 459.67 385.77Q463.10 376.91 470.27 367.34L470.27 367.34L498.74 329.14Q500.22 327.16 503.07 325.75Q505.91 324.35 509.63 324.35L509.63 324.35L527.78 324.35ZM497.00 428.30L497.00 428.30Q501.87 428.30 505.95 426.65Q510.04 425.00 512.97 422.03Q515.90 419.06 517.55 415.06Q519.20 411.06 519.20 406.36L519.20 406.36Q519.20 401.24 517.63 397.16Q516.06 393.08 513.17 390.23Q510.29 387.38 506.24 385.90Q502.20 384.41 497.33 384.41L497.33 384.41Q492.47 384.41 488.51 386.06Q484.55 387.71 481.74 390.64Q478.94 393.57 477.37 397.57Q475.80 401.57 475.80 406.19L475.80 406.19Q475.80 411.14 477.16 415.23Q478.52 419.31 481.20 422.20Q483.89 425.09 487.85 426.69Q491.81 428.30 497.00 428.30ZM623.48 324.35L588.08 367.67L583.96 372.78Q587.42 371.05 591.42 370.10Q595.43 369.15 600.05 369.15L600.05 369.15Q606.81 369.15 613.20 371.38Q619.60 373.61 624.47 378.10Q629.33 382.60 632.30 389.28Q635.27 395.96 635.27 404.87L635.27 404.87Q635.27 413.21 632.22 420.51Q629.17 427.81 623.64 433.25Q618.11 438.70 610.32 441.83Q602.52 444.97 593.12 444.97L593.12 444.97Q583.55 444.97 575.96 441.92Q568.37 438.86 563.00 433.38Q557.64 427.89 554.79 420.18Q551.95 412.46 551.95 403.06L551.95 403.06Q551.95 394.64 555.37 385.77Q558.80 376.91 565.97 367.34L565.97 367.34L594.44 329.14Q595.92 327.16 598.77 325.75Q601.61 324.35 605.33 324.35L605.33 324.35L623.48 324.35ZM592.70 428.30L592.70 428.30Q597.57 428.30 601.65 426.65Q605.74 425.00 608.67 422.03Q611.60 419.06 613.25 415.06Q614.90 411.06 614.90 406.36L614.90 406.36Q614.90 401.24 613.33 397.16Q611.76 393.08 608.87 390.23Q605.99 387.38 601.94 385.90Q597.90 384.41 593.03 384.41L593.03 384.41Q588.17 384.41 584.21 386.06Q580.25 387.71 577.44 390.64Q574.64 393.57 573.07 397.57Q571.50 401.57 571.50 406.19L571.50 406.19Q571.50 411.14 572.86 415.23Q574.22 419.31 576.90 422.20Q579.59 425.09 583.55 426.69Q587.51 428.30 592.70 428.30ZM767.60 416.34L756.80 426.98L728.83 399.02L700.61 427.15L689.81 416.51L718.02 388.21L691.13 361.31L701.85 350.59L728.75 377.48L755.48 350.75L766.37 361.48L739.55 388.29L767.60 416.34ZM824.28 324.35L906.70 324.35L906.70 333.18Q906.70 337.14 905.87 339.57Q905.05 342.01 904.22 343.66L904.22 343.66L859.01 436.72Q857.61 439.61 855.05 441.63Q852.50 443.65 848.21 443.65L848.21 443.65L833.44 443.65L879.56 352.49Q881.12 349.68 882.65 347.33Q884.18 344.98 886.07 342.83L886.07 342.83L828.98 342.83Q827.09 342.83 825.68 341.43Q824.28 340.03 824.28 338.13L824.28 338.13L824.28 324.35ZM990.77 324.35L955.37 367.67L951.25 372.78Q954.71 371.05 958.72 370.10Q962.72 369.15 967.34 369.15L967.34 369.15Q974.10 369.15 980.50 371.38Q986.89 373.61 991.76 378.10Q996.62 382.60 999.59 389.28Q1002.56 395.96 1002.56 404.87L1002.56 404.87Q1002.56 413.21 999.51 420.51Q996.46 427.81 990.93 433.25Q985.40 438.70 977.61 441.83Q969.81 444.97 960.41 444.97L960.41 444.97Q950.84 444.97 943.25 441.92Q935.66 438.86 930.29 433.38Q924.93 427.89 922.09 420.18Q919.24 412.46 919.24 403.06L919.24 403.06Q919.24 394.64 922.66 385.77Q926.09 376.91 933.26 367.34L933.26 367.34L961.73 329.14Q963.21 327.16 966.06 325.75Q968.90 324.35 972.62 324.35L972.62 324.35L990.77 324.35ZM959.99 428.30L959.99 428.30Q964.86 428.30 968.95 426.65Q973.03 425.00 975.96 422.03Q978.89 419.06 980.54 415.06Q982.19 411.06 982.19 406.36L982.19 406.36Q982.19 401.24 980.62 397.16Q979.05 393.08 976.16 390.23Q973.28 387.38 969.23 385.90Q965.19 384.41 960.32 384.41L960.32 384.41Q955.46 384.41 951.50 386.06Q947.54 387.71 944.73 390.64Q941.93 393.57 940.36 397.57Q938.79 401.57 938.79 406.19L938.79 406.19Q938.79 411.14 940.15 415.23Q941.51 419.31 944.20 422.20Q946.88 425.09 950.84 426.69Q954.80 428.30 959.99 428.30ZM1055.86 429.05L1055.86 429.05Q1060.89 429.05 1064.69 427.60Q1068.48 426.16 1071.08 423.60Q1073.68 421.04 1075.00 417.50Q1076.32 413.95 1076.32 409.82L1076.32 409.82Q1076.32 400.01 1070.87 394.97Q1065.43 389.94 1055.86 389.94L1055.86 389.94Q1046.29 389.94 1040.84 394.97Q1035.40 400.01 1035.40 409.82L1035.40 409.82Q1035.40 413.95 1036.72 417.50Q1038.04 421.04 1040.64 423.60Q1043.24 426.16 1047.03 427.60Q1050.83 429.05 1055.86 429.05ZM1055.86 338.38L1055.86 338.38Q1051.32 338.38 1048.02 339.78Q1044.72 341.18 1042.54 343.53Q1040.35 345.89 1039.32 348.94Q1038.29 351.99 1038.29 355.37L1038.29 355.37Q1038.29 358.92 1039.15 362.26Q1040.02 365.60 1042.08 368.20Q1044.14 370.80 1047.53 372.37Q1050.91 373.94 1055.86 373.94L1055.86 373.94Q1060.81 373.94 1064.19 372.37Q1067.57 370.80 1069.64 368.20Q1071.70 365.60 1072.57 362.26Q1073.43 358.92 1073.43 355.37L1073.43 355.37Q1073.43 351.99 1072.36 348.94Q1071.29 345.89 1069.14 343.53Q1067.00 341.18 1063.70 339.78Q1060.40 338.38 1055.86 338.38ZM1075.99 381.44L1075.99 381.44Q1086.88 384.99 1092.08 392.29Q1097.27 399.59 1097.27 410.15L1097.27 410.15Q1097.27 418.07 1094.26 424.51Q1091.25 430.94 1085.81 435.48Q1080.36 440.02 1072.73 442.49Q1065.10 444.97 1055.86 444.97L1055.86 444.97Q1046.62 444.97 1038.99 442.49Q1031.36 440.02 1025.91 435.48Q1020.47 430.94 1017.46 424.51Q1014.44 418.07 1014.44 410.15L1014.44 410.15Q1014.44 399.59 1019.64 392.29Q1024.84 384.99 1035.73 381.44L1035.73 381.44Q1027.07 377.81 1022.74 371.13Q1018.40 364.45 1018.40 355.04L1018.40 355.04Q1018.40 348.28 1021.17 342.42Q1023.93 336.56 1028.88 332.23Q1033.83 327.90 1040.72 325.47Q1047.61 323.03 1055.86 323.03L1055.86 323.03Q1064.11 323.03 1071.00 325.47Q1077.89 327.90 1082.84 332.23Q1087.79 336.56 1090.55 342.42Q1093.31 348.28 1093.31 355.04L1093.31 355.04Q1093.31 364.45 1088.98 371.13Q1084.65 377.81 1075.99 381.44Z" fill="#31343C"/></svg>